<?xml version="1.0" encoding="UTF-8"?>
<!-- Created with Inkscape (http://www.inkscape.org/) -->
<svg width="264.32mm" height="102.96mm" version="1.1" viewBox="0 0 264.32 102.96" xmlns="http://www.w3.org/2000/svg">
 <g transform="translate(190.1 -128.27)">
  <g transform="matrix(.26458 0 0 .26458 -190.36 128.27)">
   <rect x="364.2" y="60.202" width="635.8" height="122.9" fill="none"/>
   <g transform="translate(364.2 170.32)" fill="#fff" aria-label="Volunteer">
    <path d="m70.836-110.12h13.806l-36.158 110.12h-9.8612l-36.158-110.12h13.806l27.283 88.093z"/>
    <path d="m81.026-53.25q0-12.984 8.2176-20.544 8.382-7.5602 22.188-7.5602 13.97 0 22.188 7.7246 8.382 7.5602 8.382 20.38v26.461q0 13.148-8.382 20.708-8.2176 7.3959-22.188 7.3959-13.806 0-22.188-7.5602-8.2176-7.5602-8.2176-20.544zm13.313 26.461q0 7.0672 4.6019 11.176 4.6019 3.9445 12.491 3.9445 7.8889 0 12.491-3.9445 4.7662-4.1088 4.7662-11.176v-26.461q0-6.9028-4.7662-11.012-4.6019-4.1088-12.491-4.1088-7.889 0-12.491 4.1088-4.6019 3.9445-4.6019 11.012z"/>
    <path d="m163.7-110.12v87.929q0 4.2732 1.9722 7.3959 1.9722 3.1227 7.2315 3.1227h5.2593v12.984h-5.2593q-10.519 0-16.6-6.2454-5.9167-6.2454-5.9167-17.257v-87.929z"/>
    <path d="m233.22 0v-6.5741q-3.4514 3.9445-8.7107 5.9167-5.2593 1.9722-10.026 1.9722-13.477 0-21.202-7.5602-7.7246-7.5602-7.7246-20.544v-53.25h13.313v53.25q0 7.0672 4.6019 11.176 4.7662 3.9445 12.655 3.9445 7.5602 0 12.162-3.7801 4.7662-3.7801 4.9306-10.519v-54.072h13.313v80.04z"/>
    <path d="m269.21-80.04v6.5741q3.4514-3.9445 8.7107-5.9167 5.2593-1.9722 10.026-1.9722 13.477 0 21.202 7.5602 7.7246 7.5602 7.7246 20.544v53.25h-13.313v-53.25q0-7.0672-4.7662-11.012-4.6019-4.1088-12.491-4.1088-7.5602 0-12.326 3.7801-4.6019 3.7801-4.7662 10.519v54.072h-13.313v-80.04z"/>
    <path d="m331.66-102.23h13.313v22.188h21.202v12.984h-21.202v44.868q0 4.2732 1.9722 7.3959 2.1366 3.1227 7.3959 3.1227h12.984v12.984h-12.984q-10.683 0-16.764-6.2454-5.9167-6.2454-5.9167-17.257v-44.868h-8.382v-12.984h8.382z"/>
    <path d="m386.89-26.79q0 7.0672 4.6019 11.176 4.6019 3.9445 12.491 3.9445 6.5741 0 11.012-3.1227 4.6019-3.2871 5.9167-9.2038l13.313 1.6435q-2.1366 11.176-10.026 17.421-7.889 6.2454-20.215 6.2454-13.806 0-22.188-7.5602-8.2176-7.5602-8.2176-20.544v-26.461q0-12.984 8.2176-20.544 8.382-7.5602 22.188-7.5602 13.97 0 22.188 7.5602 8.2176 7.5602 8.382 20.544v17.257h-47.662zm0-21.037h34.35v-5.4236q-0.16435-7.0672-4.7662-11.012-4.6019-4.1088-12.491-4.1088t-12.491 4.1088q-4.6019 3.9445-4.6019 11.012z"/>
    <path d="m461.67-26.79q0 7.0672 4.6019 11.176 4.6019 3.9445 12.491 3.9445 6.5741 0 11.012-3.1227 4.6019-3.2871 5.9167-9.2038l13.313 1.6435q-2.1366 11.176-10.026 17.421-7.889 6.2454-20.215 6.2454-13.806 0-22.188-7.5602-8.2176-7.5602-8.2176-20.544v-26.461q0-12.984 8.2176-20.544 8.382-7.5602 22.188-7.5602 13.97 0 22.188 7.5602 8.2176 7.5602 8.382 20.544v17.257h-47.662zm0-21.037h34.35v-5.4236q-0.16435-7.0672-4.7662-11.012-4.6019-4.1088-12.491-4.1088-7.889 0-12.491 4.1088-4.6019 3.9445-4.6019 11.012z"/>
    <path d="m532.01-80.04v6.4098q3.1227-4.2732 7.7246-5.9167 4.7662-1.8079 11.176-1.8079 3.4514 0 8.0533 1.1505 4.7662 1.1505 8.8751 3.6158l-7.7246 10.847q-5.588-2.6296-10.847-2.6296-7.7246 0-12.326 3.7801-4.6019 3.7801-4.9306 10.519v54.072h-13.313v-80.04z"/>
   </g>
   <rect x="406.22" y="216.88" width="427.34" height="122.64" fill="none"/>
   <g transform="translate(406.22 327)" fill="#fff" aria-label="World">
    <path d="m4.2732-110.12h14.134l22.681 86.45 21.037-86.45h14.792l21.037 86.778 22.681-86.778h14.134l-29.255 110.12h-15.12l-20.873-84.97-20.873 84.97h-15.12z"/>
    <path d="m133.62-53.25q0-12.984 8.2176-20.544 8.382-7.5602 22.188-7.5602 13.97 0 22.188 7.7246 8.382 7.5602 8.382 20.38v26.461q0 13.148-8.382 20.708-8.2176 7.3959-22.188 7.3959-13.806 0-22.188-7.5602-8.2176-7.5602-8.2176-20.544zm13.313 26.461q0 7.0672 4.6019 11.176 4.6019 3.9445 12.491 3.9445 7.8889 0 12.491-3.9445 4.7662-4.1088 4.7662-11.176v-26.461q0-6.9028-4.7662-11.012-4.6019-4.1088-12.491-4.1088-7.889 0-12.491 4.1088-4.6019 3.9445-4.6019 11.012z"/>
    <path d="m215.8-80.04v6.4098q3.1227-4.2732 7.7246-5.9167 4.7662-1.8079 11.176-1.8079 3.4514 0 8.0533 1.1505 4.7662 1.1505 8.8751 3.6158l-7.7246 10.847q-5.588-2.6296-10.847-2.6296-7.7246 0-12.326 3.7801t-4.9306 10.519v54.072h-13.313v-80.04z"/>
    <path d="m274.63-110.12v87.929q0 4.2732 1.9722 7.3959 1.9722 3.1227 7.2315 3.1227h5.2593v12.984h-5.2593q-10.519 0-16.6-6.2454-5.9167-6.2454-5.9167-17.257v-87.929z"/>
    <path d="m356.48-110.12v110.12h-13.313v-6.9028q-3.2871 4.1088-8.5464 6.2454-5.2593 1.9722-10.19 1.9722-13.97 0-21.366-7.5602-7.3959-7.5602-7.5602-20.544v-26.461q0-13.806 7.889-20.873 7.8889-7.2315 21.037-7.2315 6.4098 0 11.176 2.4653 4.9306 2.3009 7.5602 5.4236v-36.651zm-13.313 56.044q-0.16435-6.7385-4.9306-10.519-4.6019-3.7801-12.162-3.7801-7.8889 0-12.491 4.1088-4.6019 3.9445-4.7662 11.012v26.461q0.16436 7.0672 4.7662 11.176 4.6019 3.9445 12.491 3.9445t12.491-3.9445q4.6019-4.1088 4.6019-11.176z"/>
   </g>
   <g fill="#fff">
    <path d="m18.195 158.25c0.319 0.319-0.322-0.328 0 0-1.511 20.2 5.386 44.037 19.143 68.671-13.034-36.211-12.39-67.191 5.072-84.295 31.601-30.952 107.32-5.84 176.52 55.872 1.64-1.032 3.245-2.092 4.907-3.109 10.326-6.319 20.747-12.087 31.203-17.42-88.744-72.375-185.48-98.01-223.08-56.531-8.586 9.471-12.422 22.64-13.772 36.812z"/>
    <path d="m3.08 131.32c8.374-8.178 17.737-15.51 28.055-21.826 72.491-44.365 168.07-23.73 228.34 44.356l18.391-22.563c-58.399-70.314-153.7-92.9-225.26-49.106-20.599 12.606-37.173 29.5-49.531 49.139z"/>
    <path d="m153.83 47.687c-12.024-7.703-15.536-23.71-7.843-35.75s23.676-15.557 35.7-7.854 15.536 23.71 7.843 35.75-23.675 15.558-35.7 7.854z"/>
    <path d="m291.5 84.347c-0.431 0.137 0.438-0.134 0 0-17.205-10.653-41.508-15.509-69.678-14.639 38.096 5.106 65.254 19.957 72.363 43.36 12.865 42.35-44.292 98.073-130.87 131.13 0.158 1.934 0.358 3.848 0.493 5.794 0.841 12.089 1.148 24.009 1.057 35.759 105.04-45.51 172.34-119.66 152.91-172.19-4.438-11.996-14.34-21.474-26.276-29.206z"/>
    <path d="m322.32 83.322c3.387 11.211 5.571 22.911 6.412 34.993 5.904 84.871-56.433 160.3-144.55 182.49l11.519 26.744c89.228-19.493 153.17-93.776 147.34-177.56-1.679-24.117-9.011-46.632-20.719-66.667z"/>
    <path d="m326.96 255.85c12.368-7.136 28.172-2.879 35.297 9.508s2.875 28.212-9.494 35.347c-12.368 7.136-28.172 2.879-35.297-9.508-7.125-12.386-2.874-28.212 9.494-35.347z"/>
    <path d="m217.03 362.35c0.11-0.439-0.116 0.444 0 0 18.09-9.064 34.985-27.22 49.044-51.683-24.352 29.78-51.238 45.118-74.857 38.882-42.742-11.286-60.063-89.263-42.662-180.4-1.727-0.881-3.459-1.717-5.183-2.624-10.714-5.634-21.003-11.634-30.939-17.886-16.513 113.42 11.136 209.72 65.978 220.76 12.522 2.523 25.779-0.935 38.619-7.044z"/>
    <path d="m201.7 389.16c-11.306-3.003-22.394-7.29-33.101-12.921-75.215-39.556-106.56-132.3-79.117-219.04l-28.775-4.234c-30.312 86.271-0.785 179.78 73.464 218.82 21.372 11.239 44.355 16.821 67.529 17.369z"/>
    <ellipse transform="matrix(.0305 -.9995 .9995 .0305 -275.5 319.3)" cx="26.846" cy="301.67" rx="25.881" ry="25.845"/>
   </g>
  </g>
 </g>
</svg>
